<svg xmlns="http://www.w3.org/2000/svg" width="920" height="420" viewBox="0 0 920 420" role="img" aria-label="Citation Support">
  <style>
    .bg { fill: #ffffff; }
    .title { font: 700 22px Inter, Arial, sans-serif; fill: #111827; }
    .label { font: 600 13px Inter, Arial, sans-serif; fill: #374151; }
    .value { font: 600 13px Inter, Arial, sans-serif; fill: #111827; }
    .axis { stroke: #d1d5db; stroke-width: 1; }
    .bar { fill: #2458d3; }
  </style>
  <rect class="bg" width="100%" height="100%"/>
  <text x="24" y="30" class="title">Citation Support</text>
  <line x1="180" y1="44" x2="180" y2="388" class="axis"/>
  
            <text x="24" y="75" class="label">dense_top_k</text>
            <rect x="180" y="52" width="497" height="34" rx="4" class="bar"/>
            <text x="689" y="75" class="value">0.766</text>
            

            <text x="24" y="131" class="label">bm25_top_k</text>
            <rect x="180" y="108" width="521" height="34" rx="4" class="bar"/>
            <text x="713" y="131" class="value">0.802</text>
            

            <text x="24" y="187" class="label">hybrid</text>
            <rect x="180" y="164" width="544" height="34" rx="4" class="bar"/>
            <text x="736" y="187" class="value">0.837</text>
            

            <text x="24" y="243" class="label">hybrid_rerank</text>
            <rect x="180" y="220" width="577" height="34" rx="4" class="bar"/>
            <text x="769" y="243" class="value">0.888</text>
            

            <text x="24" y="299" class="label">corrective_rag</text>
            <rect x="180" y="276" width="561" height="34" rx="4" class="bar"/>
            <text x="753" y="299" class="value">0.864</text>
            

            <text x="24" y="355" class="label">contexttrace_adaptive</text>
            <rect x="180" y="332" width="594" height="34" rx="4" class="bar"/>
            <text x="786" y="355" class="value">0.914</text>
            
</svg>
